<?xml version="1.0" encoding="utf-8"?>
<!-- Generator: Adobe Illustrator 18.0.0, SVG Export Plug-In . SVG Version: 6.00 Build 0)  -->
<!DOCTYPE svg PUBLIC "-//W3C//DTD SVG 1.1//EN" "http://www.w3.org/Graphics/SVG/1.1/DTD/svg11.dtd">
<svg version="1.1" id="Layer_1" xmlns="http://www.w3.org/2000/svg" xmlns:xlink="http://www.w3.org/1999/xlink" x="0px" y="0px"
	 viewBox="541.9 400.2 50 50" enable-background="new 541.9 400.2 50 50" xml:space="preserve">
<g>
	<path fill="#706F6F" d="M589.2,408h-44.5c-1.3,0-2.2,1.1-2.2,2.4c0,1.3,1.1,2.4,2.2,2.4h44.5c1.3,0,2.2-1.1,2.2-2.4
		C591.4,409.1,590.5,408,589.2,408z"/>
	<path fill="#706F6F" d="M589.2,437.9h-44.5c-1.3,0-2.2,1.1-2.2,2.2c0,1.3,1.1,2.2,2.2,2.2h44.5c1.3,0,2.2-1.1,2.2-2.2
		C591.4,438.8,590.5,437.9,589.2,437.9z"/>
	<path fill="#706F6F" d="M544.7,427.5h44.5c1.3,0,2.2-1.1,2.2-2.2c0-1.3-1.1-2.2-2.2-2.2h-44.5c-1.3,0-2.2,1.1-2.2,2.2
		C542.4,426.6,543.4,427.5,544.7,427.5z"/>
</g>
</svg>
